<svg width="90" height="117" viewBox="0 0 90 117" fill="none" xmlns="http://www.w3.org/2000/svg">
<path d="M71.6217 81.2844C82.7666 73.0936 90 59.8915 90 45C90 20.1472 69.8528 0 45 0C20.1472 0 0 20.1472 0 45C0 59.8915 7.23337 73.0936 18.3783 81.2844C26.8474 87.666 38.7853 97.7332 41.5295 113.938C41.8201 115.654 43.2591 116.986 45 116.986C46.7409 116.986 48.1799 115.654 48.4705 113.938C51.2147 97.7332 63.1526 87.666 71.6217 81.2844Z" fill="#102542"/>
<ellipse cx="45" cy="45" rx="18" ry="18" fill="black" fill-opacity="0.4"/>
<circle cx="45" cy="45" r="45" fill="#102542"/>
<path d="M45 6.42859C37.3712 6.42859 29.9137 8.69083 23.5706 12.9292C17.2275 17.1676 12.2837 23.1918 9.36441 30.24C6.44511 37.2882 5.68144 45.0437 7.16995 52.5259C8.65845 60.0081 12.3323 66.8809 17.7269 72.2751C23.1214 77.6693 29.9945 81.3426 37.4768 82.8306C44.9591 84.3186 52.7146 83.5544 59.7626 80.6346C66.8105 77.7148 72.8344 72.7706 77.0723 66.4272C81.3103 60.0838 83.572 52.6261 83.5714 44.9973C83.5707 34.768 79.5067 24.9579 72.2732 17.7249C65.0397 10.492 55.2293 6.42859 45 6.42859ZM73.3531 25.6054C73.402 25.7905 73.4483 25.9538 73.4918 26.117C73.598 26.4953 73.7041 26.8736 73.8075 27.2518C73.9109 27.6301 73.9953 27.9811 74.0796 28.3403C74.2375 28.9417 74.398 29.5459 74.5558 30.15C74.6157 30.3758 74.6729 30.6017 74.7327 30.8276C74.7599 30.9228 74.7763 30.9283 74.8525 30.8657L76.2839 29.6901C76.3165 29.6629 76.3519 29.6411 76.4063 29.603L76.6131 31.1242L77.5111 37.7179C77.5111 37.7179 77.5111 37.7424 77.5111 37.7532C77.5683 38.1669 77.6254 38.5696 77.6799 38.9941C77.7289 39.3642 77.7778 39.7343 77.8241 40.1044C77.8255 40.1307 77.8255 40.1571 77.8241 40.1833H77.7996C76.9397 37.7886 76.077 35.3966 75.209 32.9883L73.6088 34.2863L71.7039 28.8438V28.8574L70.9937 26.8545L73.3531 25.6054ZM68.3214 20.435C68.5502 20.435 68.7737 20.5028 68.9639 20.6299C69.1541 20.757 69.3024 20.9376 69.3899 21.149C69.4774 21.3603 69.5004 21.5928 69.4557 21.8172C69.4111 22.0415 69.3009 22.2476 69.1392 22.4094C68.9774 22.5711 68.7714 22.6813 68.547 22.7259C68.3227 22.7705 68.0901 22.7476 67.8788 22.6601C67.6675 22.5725 67.4868 22.4243 67.3598 22.2341C67.2327 22.0439 67.1649 21.8203 67.1649 21.5916C67.1645 21.4394 67.1941 21.2888 67.2521 21.1481C67.3101 21.0075 67.3952 20.8797 67.5026 20.772C67.6101 20.6643 67.7377 20.5789 67.8782 20.5206C68.0187 20.4623 68.1693 20.4323 68.3214 20.4323V20.435ZM49.8439 12.2929H49.9201C50.2902 12.3392 50.6603 12.3855 51.0304 12.4372L52.274 12.6059H52.3094L58.903 13.5039L60.4215 13.7107C60.3862 13.7624 60.3644 13.8005 60.3372 13.8332L59.1616 15.2646C59.099 15.3408 59.1017 15.3571 59.1997 15.3843L59.8773 15.5612L61.6869 16.0347C62.0516 16.1327 62.4162 16.2225 62.7754 16.3204L63.9129 16.6361L64.4245 16.7749L63.1591 19.1451L61.159 18.4321L55.7164 16.5137L57.0145 14.9135L49.8194 12.3229L49.8439 12.2929ZM45.0409 10.9323C45.2702 10.9318 45.4947 10.9993 45.6857 11.1264C45.8767 11.2534 46.0257 11.4343 46.1138 11.646C46.202 11.8578 46.2253 12.091 46.1809 12.3161C46.1365 12.5411 46.0263 12.7479 45.8642 12.9103C45.7022 13.0727 45.4957 13.1834 45.2707 13.2284C45.0458 13.2733 44.8126 13.2505 44.6006 13.1629C44.3886 13.0752 44.2074 12.9266 44.0799 12.7359C43.9524 12.5452 43.8843 12.321 43.8843 12.0916C43.8843 11.7848 44.0061 11.4907 44.223 11.2738C44.4399 11.0569 44.7341 10.935 45.0409 10.935V10.9323ZM26.1688 16.647L27.3035 16.3313C27.6655 16.2334 28.0328 16.1436 28.392 16.0456L30.2017 15.5721L30.8793 15.3952C30.9773 15.368 30.98 15.3517 30.9174 15.2755L29.7418 13.8441C29.7146 13.8114 29.6928 13.7733 29.6574 13.7216L31.1759 13.5148L37.7723 12.6168H37.8077L39.0486 12.4481C39.4187 12.3964 39.7888 12.3501 40.1589 12.3038H40.2351V12.3283L33.0482 14.8945L34.3462 16.4946L28.9173 18.4321L26.9171 19.1451L25.6545 16.7749L26.1688 16.647ZM21.763 20.4405C21.9916 20.441 22.215 20.5093 22.4048 20.6367C22.5947 20.7641 22.7425 20.9449 22.8296 21.1563C22.9167 21.3677 22.9392 21.6001 22.8943 21.8243C22.8493 22.0485 22.739 22.2543 22.5771 22.4158C22.4153 22.5772 22.2092 22.6871 21.9849 22.7315C21.7607 22.7759 21.5283 22.7529 21.3171 22.6652C21.1059 22.5776 20.9254 22.4294 20.7985 22.2393C20.6715 22.0491 20.6037 21.8256 20.6037 21.597C20.6027 21.4442 20.6319 21.2927 20.6897 21.1513C20.7475 21.0098 20.8328 20.8812 20.9405 20.773C21.0483 20.6647 21.1765 20.5788 21.3177 20.5203C21.4589 20.4618 21.6102 20.4319 21.763 20.4323V20.4405ZM15.5231 64.3837C15.4714 64.1986 15.4252 64.0354 15.3816 63.8721C15.2755 63.4938 15.1694 63.1156 15.0659 62.7373C14.9625 62.3591 14.8782 62.008 14.7938 61.6488C14.636 61.0474 14.4754 60.4433 14.3176 59.8391C14.2577 59.6133 14.2006 59.3874 14.1407 59.1615C14.1162 59.0663 14.0972 59.0609 14.021 59.1235L12.5896 60.2854C12.5569 60.3126 12.5188 60.3344 12.4644 60.3725L12.2576 58.8513L11.3596 52.2577C11.3596 52.2577 11.3596 52.2359 11.3596 52.2223C11.3051 51.8086 11.2453 51.4059 11.1908 50.9814C11.1419 50.6113 11.0929 50.2412 11.0466 49.8711C11.0453 49.8448 11.0453 49.8185 11.0466 49.7922H11.0711C11.931 52.1869 12.7946 54.5853 13.6618 56.9872L15.2619 55.6892L17.1668 61.1317L17.877 63.1346L15.5231 64.3837ZM11.033 44.9973C11.0325 44.7678 11.1001 44.5433 11.2273 44.3522C11.3544 44.1612 11.5355 44.0121 11.7474 43.9241C11.9593 43.836 12.1927 43.8128 12.4178 43.8574C12.6429 43.9021 12.8497 44.0125 13.012 44.1748C13.1743 44.3371 13.2848 44.5439 13.3294 44.7691C13.374 44.9942 13.3508 45.2275 13.2628 45.4395C13.1747 45.6514 13.0257 45.8324 12.8346 45.9596C12.6436 46.0868 12.4191 46.1544 12.1896 46.1538C12.037 46.1538 11.8859 46.1236 11.7451 46.065C11.6042 46.0064 11.4764 45.9205 11.3689 45.8122C11.2614 45.7039 11.1763 45.5755 11.1187 45.4342C11.0611 45.293 11.0319 45.1417 11.033 44.9891V44.9973ZM17.1804 28.8791V28.8655L15.2755 34.3081L13.6754 33.01C12.8073 35.4184 11.9446 37.8104 11.0847 40.2051H11.0602C11.0589 40.1788 11.0589 40.1525 11.0602 40.1262C11.1065 39.7561 11.1555 39.386 11.2045 39.0159C11.2589 38.6023 11.3188 38.1995 11.3732 37.775C11.3732 37.775 11.3732 37.7505 11.3732 37.7396L12.2712 31.146L12.478 29.6248C12.5324 29.6629 12.5706 29.6846 12.6032 29.7119L14.0319 30.8874C14.1081 30.95 14.1271 30.9446 14.1516 30.8494C14.2115 30.6235 14.2686 30.3976 14.3285 30.1718C14.4863 29.5676 14.6469 28.9635 14.8047 28.3621C14.9 27.9974 14.9925 27.6328 15.0768 27.2736C15.1612 26.9144 15.2864 26.5171 15.3925 26.1388C15.4361 25.9755 15.4823 25.8123 15.534 25.6272L17.9015 26.8899L17.1804 28.8791ZM45 18.1383C50.3146 18.1377 55.51 19.7132 59.9292 22.6655C64.3483 25.6178 67.7927 29.8143 69.8268 34.7242C71.8608 39.6342 72.3932 45.0371 71.3565 50.2496C70.3198 55.4621 67.7606 60.2501 64.0026 64.0081C60.2447 67.7661 55.4566 70.3252 50.2441 71.3619C45.0316 72.3986 39.6288 71.8663 34.7188 69.8322C29.8089 67.7982 25.6124 64.3537 22.6601 59.9346C19.7078 55.5154 18.1323 50.3201 18.1328 45.0055C18.1386 37.8808 20.9708 31.0496 26.0079 26.011C31.045 20.9723 37.8754 18.138 45 18.1301V18.1383ZM21.7195 69.5242C21.4908 69.5242 21.2671 69.4564 21.0769 69.3293C20.8868 69.2022 20.7385 69.0216 20.651 68.8102C20.5634 68.5989 20.5405 68.3663 20.5852 68.142C20.6298 67.9177 20.7399 67.7116 20.9017 67.5498C21.0634 67.3881 21.2695 67.2779 21.4938 67.2333C21.7182 67.1887 21.9507 67.2116 22.1621 67.2991C22.3734 67.3867 22.554 67.5349 22.6811 67.7251C22.8082 67.9153 22.876 68.1389 22.876 68.3676C22.8739 68.673 22.7511 68.965 22.5344 69.1802C22.3178 69.3953 22.0248 69.516 21.7195 69.516V69.5242ZM40.2242 77.7751H40.148L39.0377 77.6309L37.7968 77.4594H37.7614L31.165 76.5614L29.6466 76.3546C29.682 76.3029 29.7037 76.2648 29.7309 76.2321L30.9065 74.8035C30.9691 74.7273 30.9664 74.7082 30.8684 74.681L30.1908 74.5068L28.3812 74.0306C28.0193 73.9354 27.6519 73.8428 27.2927 73.7585C26.9335 73.6741 26.5361 73.549 26.1579 73.4455L25.6463 73.304L26.909 70.9338L28.9091 71.6468L34.3517 73.5517L33.0536 75.1545L40.2487 77.7452L40.2242 77.7751ZM45 79.1357C44.7714 79.1352 44.5481 79.0669 44.3582 78.9395C44.1684 78.8121 44.0206 78.6313 43.9335 78.4199C43.8464 78.2085 43.8238 77.9761 43.8688 77.7519C43.9137 77.5277 44.024 77.3219 44.1859 77.1604C44.3478 76.999 44.5538 76.8891 44.7781 76.8447C45.0024 76.8003 45.2348 76.8233 45.446 76.911C45.6571 76.9986 45.8376 77.1468 45.9646 77.3369C46.0915 77.5271 46.1593 77.7506 46.1593 77.9792C46.1586 78.2836 46.0379 78.5754 45.8235 78.7914C45.609 79.0074 45.318 79.1302 45.0136 79.133L45 79.1357ZM63.9021 73.4211C63.5238 73.5245 63.1455 73.6333 62.7645 73.734C62.3836 73.8347 62.038 73.9245 61.676 74.0061L59.8664 74.4823L59.1888 74.6565C59.0908 74.6837 59.0881 74.7028 59.1507 74.779L60.3263 76.2076C60.3535 76.2403 60.3753 76.2784 60.4106 76.3301L58.8922 76.5369L52.2985 77.4349H52.2631L51.0195 77.6064L49.9092 77.7506H49.833V77.7288L57.0281 75.1382C56.5927 74.5939 56.1709 74.0769 55.73 73.5353L61.1726 71.6304L63.1727 70.9175L64.4381 73.2877L63.9021 73.4211ZM68.3758 69.516C68.1471 69.516 67.9235 69.4482 67.7333 69.3211C67.5431 69.194 67.3948 69.0134 67.3073 68.8021C67.2198 68.5907 67.1969 68.3582 67.2415 68.1338C67.2861 67.9095 67.3963 67.7034 67.558 67.5417C67.7198 67.3799 67.9259 67.2698 68.1502 67.2251C68.3746 67.1805 68.6071 67.2034 68.8184 67.291C69.0298 67.3785 69.2104 67.5267 69.3374 67.7169C69.4645 67.9071 69.5324 68.1307 69.5324 68.3595C69.5324 68.6662 69.4105 68.9604 69.1936 69.1773C68.9767 69.3942 68.6826 69.516 68.3758 69.516ZM77.8486 49.8711C77.8024 50.2412 77.7534 50.6113 77.7044 50.9814C77.65 51.395 77.5928 51.7978 77.5357 52.2223C77.5357 52.2359 77.5357 52.2468 77.5357 52.2577L76.6376 58.8513L76.4308 60.3725C76.3764 60.3344 76.341 60.3126 76.3084 60.2854L74.877 59.1098C74.8008 59.0472 74.7844 59.0527 74.7572 59.1479C74.6973 59.3738 74.6402 59.5997 74.5804 59.8255C74.4225 60.4297 74.262 61.0338 74.1041 61.6352C74.0089 61.9998 73.9191 62.3645 73.832 62.7237C73.7449 63.0829 73.6225 63.4802 73.5163 63.8585C73.4728 64.0218 73.4265 64.185 73.3775 64.3701L71.0073 63.1074L71.7176 61.1045L73.6225 55.662L75.2226 56.96C76.0898 54.5544 76.9533 52.1561 77.8132 49.765H77.8377C77.8402 49.8003 77.8402 49.8358 77.8377 49.8711H77.8486ZM78.0609 46.1457C77.8321 46.1457 77.6085 46.0778 77.4183 45.9507C77.2281 45.8237 77.0799 45.643 76.9923 45.4317C76.9048 45.2204 76.8819 44.9878 76.9265 44.7635C76.9712 44.5391 77.0813 44.3331 77.2431 44.1713C77.4048 44.0096 77.6109 43.8994 77.8352 43.8548C78.0596 43.8102 78.2921 43.8331 78.5035 43.9206C78.7148 44.0082 78.8954 44.1564 79.0225 44.3466C79.1496 44.5368 79.2174 44.7604 79.2174 44.9891C79.2174 45.1419 79.1871 45.2932 79.1283 45.4342C79.0695 45.5753 78.9834 45.7033 78.8748 45.8108C78.7663 45.9183 78.6375 46.0033 78.4959 46.0608C78.3543 46.1182 78.2028 46.1471 78.05 46.1457H78.0609Z" fill="url(#paint0_linear_311_12634)"/>
<path d="M37.997 41.872C36.389 41.872 35.213 42.568 34.445 43.48C34.493 40.744 36.053 38.68 38.165 38.68C39.221 38.68 40.253 39.208 40.805 40.408L43.133 39.232C42.125 36.952 40.109 36.088 38.165 36.088C33.557 36.088 31.589 40.36 31.589 44.656C31.589 49.456 33.845 52.288 37.589 52.288C41.069 52.288 43.301 49.888 43.301 46.984C43.301 44.248 41.165 41.872 37.997 41.872ZM37.541 49.672C35.861 49.648 34.637 48.448 34.637 46.888C34.685 45.376 35.981 44.296 37.685 44.296C39.317 44.344 40.493 45.472 40.493 46.96C40.493 48.496 39.245 49.672 37.541 49.672ZM51.4333 41.536C50.2573 41.536 49.1533 41.944 48.3613 42.52L49.0813 38.872H55.5133V36.28H46.8013L45.4093 44.152L47.0893 45.304C48.1453 44.44 49.4413 43.888 50.6893 43.888C52.4413 43.888 53.7613 45.04 53.7613 46.744C53.7613 48.472 52.4413 49.696 50.5453 49.696C49.0813 49.696 47.7373 48.76 47.1853 47.536L44.9773 48.928C45.9613 50.872 48.1933 52.288 50.6893 52.288C53.9293 52.288 56.5693 50.128 56.5693 46.72C56.5693 43.672 54.4573 41.536 51.4333 41.536Z" fill="url(#paint1_linear_311_12634)"/>
<defs>
<linearGradient id="paint0_linear_311_12634" x1="45" y1="6.42859" x2="45" y2="83.5714" gradientUnits="userSpaceOnUse">
<stop stop-color="#FBBF2D"/>
<stop offset="1" stop-color="#DD9B1A"/>
</linearGradient>
<linearGradient id="paint1_linear_311_12634" x1="44" y1="27" x2="44" y2="59" gradientUnits="userSpaceOnUse">
<stop stop-color="#FBBF2D"/>
<stop offset="1" stop-color="#DD9B1A"/>
</linearGradient>
</defs>
</svg>
